<?xml version="1.0" encoding="utf-8"?>
<!-- Generator: Adobe Illustrator 18.1.1, SVG Export Plug-In . SVG Version: 6.00 Build 0)  -->
<svg version="1.1" id="Layer_1" xmlns="http://www.w3.org/2000/svg" xmlns:xlink="http://www.w3.org/1999/xlink" x="0px" y="0px"
	 viewBox="0 0 3000 1687.5" enable-background="new 0 0 3000 1687.5" xml:space="preserve">
<pattern  y="-656.3" width="2762.3" height="3215.8" patternUnits="userSpaceOnUse" id="New_Pattern" viewBox="157.7 -3463.9 2762.3 3215.8" overflow="visible">
	<g>
		<polygon fill="none" points="157.7,-3463.9 2920,-3463.9 2920,-248.2 157.7,-248.2 		"/>
		<g>
			<g>
				<path fill="#EAEDEC" d="M825.5-71.9l268.3-158c17.8-10.5,29.8-27.3,34.6-45.9s2.6-39-8-56.9c-0.6-1.1-1.2-2.1-1.9-3.1
					c-5.6-8.5-12.6-15.5-20.6-20.9c-23.2-15.8-54.5-17.8-80.4-2.6l-268.3,158c-17.8,10.5-29.8,27.3-34.6,45.9
					c-2.1,8.3-2.8,17-2.1,25.7c0.8,9.6,3.6,19.2,8.3,28.2c0.6,1,1.2,2.1,1.8,3.1C743.7-62.7,789.8-50.8,825.5-71.9z"/>
				<path fill="#ED1CBC" d="M825.5-71.8l134.2-79l-76.3-129.5l-134.2,79c-17.8,10.5-29.8,27.3-34.6,45.9s-2.6,39,8,56.9
					C743.7-62.7,789.8-50.8,825.5-71.8z"/>
				<path opacity="0.1" fill="#231F20" enable-background="new    " d="M712.5-129.8l385.4-227c-23.2-15.8-54.5-17.8-80.4-2.6
					l-268.3,158c-17.8,10.5-29.8,27.3-34.6,45.9C712.5-147.1,711.8-138.4,712.5-129.8L712.5-129.8z"/>
				<path fill="#FFFFFF" enable-background="new    " d="M1101.1-266.2c-2.3-4-7.4-5.3-11.4-2.9c-4,2.3-5.3,7.4-2.9,11.4
					c2.3,4,7.4,5.3,11.4,2.9C1102.1-257.2,1103.4-262.3,1101.1-266.2z"/>
				<path fill="#FFFFFF" enable-background="new    " d="M1078.6-253c-2.3-4-7.4-5.3-11.4-2.9c-4,2.3-5.3,7.4-2.9,11.4
					s7.4,5.3,11.4,2.9C1079.6-243.9,1080.9-249,1078.6-253z"/>
			</g>
			<g>
				<path fill="#EAECED" d="M1977.4-14.5l376.8-220.2c25.1-14.6,41.9-38.1,48.7-64.2c6.8-26.1,3.8-54.7-10.9-79.8
					c-0.9-1.5-1.7-2.9-2.6-4.3c-7.8-11.9-17.6-21.8-28.8-29.4c-32.5-22.3-76.3-25.2-112.7-4l-376.8,220.2
					c-25.1,14.6-41.9,38.1-48.7,64.2c-3,11.7-4.1,23.9-3.1,36c1.1,13.5,4.9,26.9,11.5,39.5c0.8,1.4,1.6,3,2.5,4.4
					C1862.8-2,1927.3,14.9,1977.4-14.5z"/>
				<path fill="#ED1C24" d="M1977.5-14.4l188.4-110.1l-106.3-181.8l-188.4,110.1c-25.1,14.6-41.9,38.1-48.7,64.2
					c-6.8,26.1-3.8,54.7,10.9,79.8C1862.8-2,1927.3,14.9,1977.5-14.4z"/>
				<path opacity="0.1" fill="#231F20" enable-background="new    " d="M1819.4-96.2l541.2-316.3c-32.5-22.3-76.3-25.2-112.7-4
					l-376.8,220.2c-25.1,14.6-41.9,38.1-48.7,64.2C1819.5-120.4,1818.4-108.2,1819.4-96.2L1819.4-96.2z"/>
				<path fill="#FFFFFF" enable-background="new    " d="M2171.4-172.6L2171.4-172.6c3.9,6.8,12.6,9,19.3,5.1l99.9-58.4
					c6.8-3.9,9-12.6,5.1-19.3l0,0c-3.9-6.8-12.6-9-19.3-5.1l-99.9,58.4C2169.7-188,2167.5-179.4,2171.4-172.6z"/>
				<path fill="#FFFFFF" enable-background="new    " d="M2364.7-285.6c-3.2-5.6-10.4-7.4-15.9-4.2c-5.6,3.2-7.4,10.4-4.2,15.9
					c3.2,5.6,10.4,7.4,15.9,4.2C2366-272.9,2367.9-280,2364.7-285.6z"/>
				<path fill="#FFFFFF" enable-background="new    " d="M2333.1-267.1c-3.2-5.6-10.4-7.4-15.9-4.2c-5.6,3.2-7.4,10.4-4.2,15.9
					c3.2,5.6,10.4,7.4,15.9,4.2S2336.3-261.6,2333.1-267.1z"/>
			</g>
		</g>
		<g>
			<g>
				<path fill="#EAECED" d="M2807.2-2025.5l352,241c23.4,16,51.2,21.1,77.1,16.2c25.9-4.8,49.9-19.5,66-43c1-1.4,1.9-2.8,2.7-4.1
					c7.3-11.8,11.9-24.6,14-37.7c6.1-38-9.6-78-43.5-101.2l-352-241c-23.4-16-51.2-21.1-77.1-16.2c-11.6,2.2-22.8,6.4-33.1,12.3
					c-11.4,6.6-21.7,15.6-30.1,26.7c-0.9,1.3-2,2.7-2.9,4C2748.2-2121.6,2760.2-2057.5,2807.2-2025.5z"/>
				<path fill="#ED1C24" d="M2807.1-2025.4l176.1,120.5l116.3-169.9l-176.1-120.5c-23.4-16-51.2-21.1-77.1-16.2
					c-25.9,4.8-49.9,19.5-66,43C2748.2-2121.6,2760.2-2057.5,2807.1-2025.4z"/>
				<path opacity="0.1" fill="#231F20" enable-background="new    " d="M2813.3-2199.3l505.7,346.2c6.1-38-9.6-78-43.5-101.2
					l-352-241c-23.4-16-51.2-21.1-77.1-16.2C2834.8-2209.4,2823.6-2205.2,2813.3-2199.3L2813.3-2199.3z"/>
				<path opacity="0.6" fill="#FFFFFF" enable-background="new    " d="M2814.4-2066.4L2814.4-2066.4c-4.3,6.3-2.7,14.9,3.6,19.2
					l146,99.9c6.3,4.3,14.9,2.7,19.2-3.6l0,0c4.3-6.3,2.7-14.9-3.6-19.2l-146-99.9C2827.3-2074.3,2818.7-2072.7,2814.4-2066.4z"/>
			</g>
			<g>
				<path fill="#EAECED" d="M3359.3-3104.9l-289.7-296.4c-19.3-19.7-44.8-29.8-70.4-30.1c-25.6-0.3-51.3,9.1-71,28.5
					c-1.2,1.2-2.3,2.3-3.4,3.4c-9.2,9.9-16,21.2-20.5,33.3c-13,35-5.7,76.1,22.3,104.7l289.7,296.4c19.3,19.7,44.8,29.8,70.4,30.1
					c11.4,0.1,22.9-1.7,33.9-5.5c12.2-4.2,23.6-10.7,33.7-19.7c1.1-1.1,2.4-2.2,3.5-3.3C3397.2-3002.2,3397.9-3065.5,3359.3-3104.9z
					"/>
				<path opacity="0.1" fill="#231F20" enable-background="new    " d="M3320.4-2940.5l-416.1-425.7c-13,35-5.7,76.1,22.3,104.7
					l289.7,296.4c19.3,19.7,44.8,29.8,70.4,30.1C3298.1-2935,3309.6-2936.8,3320.4-2940.5L3320.4-2940.5z"/>
			</g>
			<g>
				<path fill="#EAEDEC" d="M2929.6-464.5l268.3-158c17.8-10.5,29.8-27.3,34.6-45.9c4.8-18.6,2.6-39-8-56.9
					c-0.6-1.1-1.2-2.1-1.9-3.1c-5.6-8.5-12.6-15.5-20.6-20.9c-23.2-15.8-54.5-17.8-80.4-2.6l-268.3,158
					c-17.8,10.5-29.8,27.3-34.6,45.9c-2.1,8.3-2.8,17-2.1,25.7c0.8,9.6,3.6,19.2,8.3,28.2c0.6,1,1.2,2.1,1.8,3.1
					C2847.8-455.3,2893.8-443.4,2929.6-464.5z"/>
				<path fill="#ED1CBC" d="M2929.6-464.4l134.2-79l-76.3-129.5l-134.2,79c-17.8,10.5-29.8,27.3-34.6,45.9s-2.6,39,8,56.9
					C2847.8-455.3,2893.8-443.4,2929.6-464.4z"/>
				<path opacity="0.1" fill="#231F20" enable-background="new    " d="M2816.6-522.4l385.4-227c-23.2-15.8-54.5-17.8-80.4-2.6
					l-268.3,158c-17.8,10.5-29.8,27.3-34.6,45.9C2816.6-539.7,2815.9-531,2816.6-522.4L2816.6-522.4z"/>
				<path opacity="0.6" fill="#FFFFFF" enable-background="new    " d="M2904.8-481.9L2904.8-481.9c2.8,4.8,9,6.4,13.8,3.6
					l111.3-65.5c4.8-2.8,6.4-9,3.6-13.8l0,0c-2.8-4.8-9-6.4-13.8-3.6l-111.3,65.5C2903.6-492.9,2902-486.7,2904.8-481.9z"/>
			</g>
		</g>
		<g>
			<g>
				<path fill="#ECEAED" d="M1239.5-2241l-137.7-442.8c-9.2-29.5-29.5-52.5-54.8-65.8c-25.3-13.3-55.7-17-85.3-7.8
					c-1.8,0.6-3.5,1.1-5.1,1.7c-14.2,5.2-26.8,13-37.4,22.7c-30.8,28.3-44.4,72.9-31.1,115.6l137.7,442.8
					c9.2,29.5,29.5,52.5,54.8,65.8c11.4,5.9,23.7,9.9,36.5,11.8c14.2,2,29,1.3,43.7-2.5c1.7-0.5,3.5-1,5.2-1.5
					C1224.9-2119.3,1257.9-2182.1,1239.5-2241z"/>
				<path fill="#EDB91C" d="M1239.5-2241l-68.9-221.4L957-2396l68.9,221.4c9.2,29.5,29.5,52.5,54.8,65.8c25.3,13.3,55.7,17,85.3,7.8
					C1224.9-2119.3,1257.9-2182.1,1239.5-2241z"/>
				<path opacity="0.1" fill="#231F20" enable-background="new    " d="M1117-2097l-197.8-636c-30.8,28.3-44.4,72.9-31.1,115.6
					l137.7,442.8c9.2,29.5,29.5,52.5,54.8,65.8C1091.9-2102.9,1104.3-2098.9,1117-2097L1117-2097z"/>
				<path fill="#FFFFFF" enable-background="new    " d="M1122.2-2479.7L1122.2-2479.7c7.9-2.5,12.4-10.9,9.9-18.8l-36.5-117.4
					c-2.5-7.9-10.9-12.4-18.8-9.9l0,0c-7.9,2.5-12.4,10.9-9.9,18.8l36.5,117.4C1105.9-2481.7,1114.3-2477.2,1122.2-2479.7z"/>
				<path opacity="0.6" fill="#FFFFFF" enable-background="new    " d="M1205.7-2211.1L1205.7-2211.1c7.9-2.5,12.4-10.9,9.9-18.8
					l-57.1-183.6c-2.5-7.9-10.9-12.4-18.8-9.9l0,0c-7.9,2.5-12.4,10.9-9.9,18.8l57.1,183.6C1189.4-2213,1197.8-2208.6,1205.7-2211.1
					z"/>
				<path fill="#FFFFFF" enable-background="new    " d="M1051.6-2706.8c-6.5,2-10.2,9-8.1,15.5s9,10.2,15.5,8.1s10.2-9,8.1-15.5
					S1058.1-2708.8,1051.6-2706.8z"/>
				<path fill="#FFFFFF" enable-background="new    " d="M1063.1-2669.7c-6.5,2-10.2,9-8.1,15.5c2,6.5,9,10.2,15.5,8.1
					c6.5-2,10.2-9,8.1-15.5C1076.6-2668,1069.6-2671.7,1063.1-2669.7z"/>
			</g>
			<g>
				<path fill="#EAEDEA" d="M254.9-1152l482.7,143.4c32.1,9.5,65.1,5.1,92.5-9.7s49-40,58.6-72.2c0.6-1.9,1.1-3.8,1.6-5.6
					c3.9-15.9,4.5-32,2.1-47.4c-6.9-44.9-39-84.2-85.5-98L324.1-1385c-32.1-9.5-65.1-5.1-92.5,9.7c-12.2,6.7-23.3,15.4-32.7,25.8
					c-10.5,11.6-18.7,25.4-24.2,40.9c-0.5,1.8-1.2,3.7-1.8,5.6C154-1238.7,190.6-1171.1,254.9-1152z"/>
				<path fill="#9D1CED" d="M254.9-1152l241.4,71.7l69.2-232.9l-241.4-71.7c-32.1-9.5-65.1-5.1-92.5,9.7c-27.3,14.8-49,40-58.6,72.2
					C154-1238.7,190.6-1171.1,254.9-1152z"/>
				<path opacity="0.1" fill="#231F20" enable-background="new    " d="M199-1349.6l693.4,206c-6.9-44.9-39-84.2-85.5-98L324.1-1385
					c-32.1-9.5-65.1-5.1-92.5,9.7C219.5-1368.6,208.4-1359.9,199-1349.6L199-1349.6z"/>
				<path fill="#FFFFFF" enable-background="new    " d="M541.2-1113.6L541.2-1113.6c-2.6,8.6,2.3,17.7,11,20.3l128,38
					c8.6,2.6,17.7-2.3,20.3-11l0,0c2.6-8.6-2.3-17.7-11-20.3l-128-38C552.8-1127.1,543.7-1122.2,541.2-1113.6z"/>
				<path opacity="0.6" fill="#FFFFFF" enable-background="new    " d="M248.3-1200.6L248.3-1200.6c-2.6,8.6,2.3,17.7,11,20.3
					l200.2,59.5c8.6,2.6,17.7-2.3,20.3-11l0,0c2.6-8.6-2.3-17.7-11-20.3l-200.2-59.5C260-1214.1,250.9-1209.2,248.3-1200.6z"/>
				<path fill="#FFFFFF" enable-background="new    " d="M788.7-1040.1c2.1-7.1-1.9-14.6-9.1-16.7c-7.1-2.1-14.6,1.9-16.7,9.1
					s1.9,14.6,9.1,16.7C779.1-1028.9,786.6-1032.9,788.7-1040.1z"/>
				<path fill="#FFFFFF" enable-background="new    " d="M748.2-1052.1c2.1-7.1-1.9-14.6-9.1-16.7c-7.1-2.1-14.6,1.9-16.7,9.1
					c-2.1,7.1,1.9,14.6,9.1,16.7C738.6-1040.9,746.1-1045,748.2-1052.1z"/>
			</g>
			<g>
				<path fill="#EAECED" d="M2000.9-798.1l482.7,143.4c32.1,9.5,65.1,5.1,92.5-9.7c27.3-14.8,49-40,58.6-72.2
					c0.6-1.9,1.1-3.8,1.6-5.6c3.9-15.9,4.5-32,2.1-47.4c-6.9-44.9-39-84.2-85.5-98L2070.1-1031c-32.1-9.5-65.1-5.1-92.5,9.7
					c-12.2,6.7-23.3,15.4-32.7,25.8c-10.5,11.6-18.7,25.4-24.2,40.9c-0.5,1.8-1.2,3.7-1.8,5.6
					C1899.9-884.7,1936.6-817.1,2000.9-798.1z"/>
				<path fill="#ED1C24" d="M2000.9-798l241.4,71.7l69.2-232.9l-241.4-71.7c-32.1-9.5-65.1-5.1-92.5,9.7c-27.3,14.8-49,40-58.6,72.2
					C1899.9-884.7,1936.6-817.1,2000.9-798z"/>
				<path opacity="0.1" fill="#231F20" enable-background="new    " d="M1945-995.6l693.4,206c-6.9-44.9-39-84.2-85.5-98
					L2070.1-1031c-32.1-9.5-65.1-5.1-92.5,9.7C1965.4-1014.6,1954.3-1005.9,1945-995.6L1945-995.6z"/>
				<path fill="#FFFFFF" enable-background="new    " d="M2287.1-759.6L2287.1-759.6c-2.6,8.6,2.3,17.7,11,20.3l128,38
					c8.6,2.6,17.7-2.3,20.3-11l0,0c2.6-8.6-2.3-17.7-11-20.3l-128-38C2298.8-773.2,2289.7-768.2,2287.1-759.6z"/>
				<path opacity="0.6" fill="#FFFFFF" enable-background="new    " d="M1994.3-846.6L1994.3-846.6c-2.6,8.6,2.3,17.7,11,20.3
					l200.2,59.5c8.6,2.6,17.7-2.3,20.3-11l0,0c2.6-8.6-2.3-17.7-11-20.3l-200.2-59.5C2005.9-860.1,1996.8-855.2,1994.3-846.6z"/>
				<path fill="#FFFFFF" enable-background="new    " d="M2534.7-686.1c2.1-7.1-1.9-14.6-9.1-16.7c-7.1-2.1-14.6,1.9-16.7,9.1
					c-2.1,7.1,1.9,14.6,9.1,16.7C2525.1-674.9,2532.6-679,2534.7-686.1z"/>
				<path fill="#FFFFFF" enable-background="new    " d="M2494.2-698.1c2.1-7.1-1.9-14.6-9.1-16.7s-14.6,1.9-16.7,9.1
					c-2.1,7.1,1.9,14.6,9.1,16.7C2484.6-686.9,2492.1-691,2494.2-698.1z"/>
			</g>
			<g>
				<path fill="#EAECED" d="M44.8-2025.5l352,241c23.4,16,51.2,21.1,77.1,16.2c25.9-4.8,49.9-19.5,66-43c1-1.4,1.9-2.8,2.7-4.1
					c7.3-11.8,11.9-24.6,14-37.7c6.1-38-9.6-78-43.5-101.2l-352-241c-23.4-16-51.2-21.1-77.1-16.2c-11.6,2.2-22.8,6.4-33.1,12.3
					c-11.4,6.6-21.7,15.6-30.1,26.7c-0.9,1.3-2,2.7-2.9,4C-14.1-2121.6-2.1-2057.5,44.8-2025.5z"/>
				<path fill="#ED1C24" d="M44.8-2025.4l176.1,120.5l116.3-169.9l-176.1-120.5c-23.4-16-51.2-21.1-77.1-16.2s-49.9,19.5-66,43
					C-14.1-2121.6-2.1-2057.5,44.8-2025.4z"/>
				<path opacity="0.1" fill="#231F20" enable-background="new    " d="M51-2199.3l505.7,346.2c6.1-38-9.6-78-43.5-101.2l-352-241
					c-23.4-16-51.2-21.1-77.1-16.2C72.5-2209.4,61.3-2205.2,51-2199.3L51-2199.3z"/>
				<path fill="#FFFFFF" enable-background="new    " d="M265.7-1920.2L265.7-1920.2c-4.3,6.3-2.7,14.9,3.6,19.2l93.3,63.9
					c6.3,4.3,14.9,2.7,19.2-3.6l0,0c4.3-6.3,2.7-14.9-3.6-19.2l-93.3-63.9C278.6-1928.1,270-1926.5,265.7-1920.2z"/>
				<path opacity="0.6" fill="#FFFFFF" enable-background="new    " d="M52.1-2066.4L52.1-2066.4c-4.3,6.3-2.7,14.9,3.6,19.2
					l146,99.9c6.3,4.3,14.9,2.7,19.2-3.6l0,0c4.3-6.3,2.7-14.9-3.6-19.2l-146-99.9C65-2074.3,56.4-2072.7,52.1-2066.4z"/>
				<path fill="#FFFFFF" enable-background="new    " d="M446.2-1796.6c3.6-5.2,2.2-12.3-3-15.8c-5.2-3.6-12.3-2.2-15.8,3
					s-2.2,12.3,3,15.8C435.6-1790,442.7-1791.4,446.2-1796.6z"/>
				<path fill="#FFFFFF" enable-background="new    " d="M416.7-1816.8c3.6-5.2,2.2-12.3-3-15.8c-5.2-3.6-12.3-2.2-15.8,3
					c-3.6,5.2-2.2,12.3,3,15.8C406.1-1810.3,413.2-1811.6,416.7-1816.8z"/>
			</g>
			<g>
				<path fill="#ECEAED" d="M1336.5-784.4l-405.4,133c-27,8.8-47.9,27.9-59.7,51.4s-14.8,51.5-6,78.6c0.5,1.6,1,3.2,1.6,4.7
					c5,13,12.3,24.5,21.4,34c26.5,27.9,67.7,39.8,106.8,27l405.4-133c27-8.8,47.9-27.9,59.7-51.4c5.3-10.5,8.8-22,10.3-33.8
					c1.7-13.1,0.8-26.7-2.9-40.1c-0.5-1.5-1-3.2-1.5-4.7C1448.6-772.8,1390.5-802.2,1336.5-784.4z"/>
				<path fill="#EDB91C" d="M1336.5-784.5l-202.7,66.5l64.2,195.6l202.7-66.5c27-8.8,47.9-27.9,59.7-51.4
					c11.9-23.5,14.8-51.5,6-78.6C1448.6-772.8,1390.5-802.2,1336.5-784.5z"/>
				<path opacity="0.1" fill="#231F20" enable-background="new    " d="M1470.8-673.8L888.5-482.7c26.5,27.9,67.7,39.8,106.8,27
					l405.4-133c27-8.8,47.9-27.9,59.7-51.4C1465.7-650.7,1469.2-662.1,1470.8-673.8L1470.8-673.8z"/>
				<path fill="#FFFFFF" enable-background="new    " d="M1118.6-673.1L1118.6-673.1c-2.4-7.3-10.2-11.2-17.4-8.8l-107.5,35.3
					c-7.3,2.4-11.2,10.2-8.8,17.4l0,0c2.4,7.3,10.2,11.2,17.4,8.8l107.5-35.3C1117-658,1121-665.8,1118.6-673.1z"/>
				<path opacity="0.6" fill="#FFFFFF" enable-background="new    " d="M1364.5-753.8L1364.5-753.8c-2.4-7.3-10.2-11.2-17.4-8.8
					L1179-707.5c-7.3,2.4-11.2,10.2-8.8,17.4l0,0c2.4,7.3,10.2,11.2,17.4,8.8l168.1-55.2C1362.9-738.7,1366.9-746.5,1364.5-753.8z"
					/>
				<path fill="#FFFFFF" enable-background="new    " d="M910.7-604.9c2,6,8.4,9.2,14.4,7.3c6-2,9.2-8.4,7.3-14.4
					c-2-6-8.4-9.2-14.4-7.3C912-617.3,908.7-610.8,910.7-604.9z"/>
				<path fill="#FFFFFF" enable-background="new    " d="M944.7-616c2,6,8.4,9.2,14.4,7.3c6-2,9.2-8.4,7.3-14.4
					c-2-6-8.4-9.2-14.4-7.3C946-628.4,942.7-622,944.7-616z"/>
			</g>
			<g>
				<path fill="#EDECEA" d="M1564-3070.7l-355.1-157.2c-23.6-10.5-49.3-10.3-71.7-1.7s-41.4,25.8-51.9,49.4
					c-0.6,1.4-1.2,2.8-1.8,4.2c-4.6,11.8-6.6,24-6.3,36.1c0.8,35,21.5,68.2,55.8,83.4l355.1,157.2c23.6,10.5,49.3,10.3,71.7,1.7
					c10-3.9,19.3-9.5,27.6-16.5c9.1-7.8,16.8-17.6,22.5-28.9c0.6-1.4,1.3-2.7,1.9-4.1C1632.7-2994.5,1611.3-3049.8,1564-3070.7z"/>
				<path fill="#1CED73" d="M1564-3070.8l-177.6-78.6l-75.9,171.3l177.6,78.6c23.6,10.5,49.3,10.3,71.7,1.7s41.4-25.8,51.9-49.4
					C1632.7-2994.5,1611.3-3049.8,1564-3070.8z"/>
				<path opacity="0.1" fill="#231F20" enable-background="new    " d="M1587.3-2914.1l-510-225.9c0.8,35,21.5,68.2,55.8,83.4
					l355.1,157.2c23.6,10.5,49.3,10.3,71.7,1.7C1569.8-2901.6,1579.1-2907.1,1587.3-2914.1L1587.3-2914.1z"/>
				<path fill="#FFFFFF" enable-background="new    " d="M1348.9-3128.3L1348.9-3128.3c2.8-6.4,0-13.8-6.4-16.6l-94.1-41.7
					c-6.4-2.8-13.8,0-16.6,6.4l0,0c-2.8,6.4,0,13.8,6.4,16.6l94.1,41.7C1338.7-3119.1,1346.1-3122,1348.9-3128.3z"/>
				<path opacity="0.6" fill="#FFFFFF" enable-background="new    " d="M1564.3-3032.9L1564.3-3032.9c2.8-6.4,0-13.8-6.4-16.6
					l-147.2-65.2c-6.4-2.8-13.8,0-16.6,6.4l0,0c-2.8,6.4,0,13.8,6.4,16.6l147.2,65.2C1554.1-3023.7,1561.5-3026.6,1564.3-3032.9z"/>
				<path fill="#FFFFFF" enable-background="new    " d="M1166.8-3209c-2.3,5.2,0,11.4,5.3,13.7s11.4,0,13.7-5.3s0-11.4-5.3-13.7
					S1169.1-3214.2,1166.8-3209z"/>
				<path fill="#FFFFFF" enable-background="new    " d="M1196.6-3195.8c-2.3,5.2,0,11.4,5.3,13.7s11.4,0,13.7-5.3s0-11.4-5.3-13.7
					S1198.9-3201,1196.6-3195.8z"/>
			</g>
			<g>
				<path fill="#EAEDEA" d="M2194-2560.2l-216.2,365.9c-14.4,24.3-17.5,52.3-11,77.7s22.7,48.3,47.1,62.8c1.5,0.9,2.9,1.7,4.3,2.4
					c12.3,6.5,25.3,10.2,38.4,11.4c38.2,3.6,76.9-14.7,97.7-50l216.2-365.9c14.4-24.3,17.5-52.3,11-77.7c-3-11.4-7.8-22.2-14.5-32.1
					c-7.4-10.9-16.9-20.5-28.5-28.1c-1.4-0.8-2.8-1.8-4.2-2.6C2285.6-2625.2,2222.7-2609,2194-2560.2z"/>
				<path fill="#9D1CED" d="M2193.9-2560.2l-108.1,183l176.6,104.3l108.1-183c14.4-24.3,17.5-52.3,11-77.7
					c-6.5-25.4-22.7-48.3-47.1-62.8C2285.6-2625.2,2222.7-2609,2193.9-2560.2z"/>
				<path opacity="0.1" fill="#231F20" enable-background="new    " d="M2367.2-2565.6L2056.6-2040c38.2,3.6,76.9-14.7,97.7-50
					l216.2-365.9c14.4-24.3,17.5-52.3,11-77.7C2378.6-2544.9,2373.7-2555.8,2367.2-2565.6L2367.2-2565.6z"/>
				<path fill="#FFFFFF" enable-background="new    " d="M2103.9-2333.7L2103.9-2333.7c-6.6-3.9-15-1.7-18.9,4.9l-57.3,97
					c-3.9,6.6-1.7,15,4.9,18.9l0,0c6.6,3.9,15,1.7,18.9-4.9l57.3-97C2112.6-2321.4,2110.4-2329.8,2103.9-2333.7z"/>
				<path opacity="0.6" fill="#FFFFFF" enable-background="new    " d="M2235.1-2555.7L2235.1-2555.7c-6.6-3.9-15-1.7-18.9,4.9
					l-89.7,151.8c-3.9,6.6-1.7,15,4.9,18.9l0,0c6.6,3.9,15,1.7,18.9-4.9l89.7-151.8C2243.8-2543.4,2241.6-2551.8,2235.1-2555.7z"/>
				<path fill="#FFFFFF" enable-background="new    " d="M1993-2146c5.4,3.2,12.3,1.4,15.5-4c3.2-5.4,1.4-12.3-4-15.5
					c-5.4-3.2-12.3-1.4-15.5,4C1985.8-2156.2,1987.6-2149.2,1993-2146z"/>
				<path fill="#FFFFFF" enable-background="new    " d="M2011.1-2176.7c5.4,3.2,12.3,1.4,15.5-4c3.2-5.4,1.4-12.3-4-15.5
					c-5.4-3.2-12.3-1.4-15.5,4C2003.9-2186.9,2005.7-2179.9,2011.1-2176.7z"/>
			</g>
			<g>
				<path fill="#ECEAED" d="M2281-3021.3l287.7,413.3c19.1,27.5,47.7,44.7,78.3,50.1c30.6,5.5,63.3-0.7,90.8-19.9
					c1.7-1.2,3.2-2.2,4.7-3.4c13-10,23.5-22.2,31.2-35.8c22.6-39.4,22.1-90.1-5.7-129.9l-287.7-413.3
					c-19.1-27.5-47.7-44.7-78.3-50.1c-13.7-2.4-27.8-2.5-41.7-0.2c-15.4,2.5-30.5,8.1-44.4,16.9c-1.6,1.1-3.3,2.2-4.9,3.3
					C2256.1-3152.1,2242.6-3076.3,2281-3021.3z"/>
				<path fill="#EDB91C" d="M2280.9-3021.3l143.9,206.7l199.4-138.8l-143.9-206.7c-19.1-27.5-47.7-44.7-78.3-50.1
					c-30.6-5.5-63.3,0.7-90.8,19.9C2256.1-3152.1,2242.6-3076.3,2280.9-3021.3z"/>
				<path opacity="0.1" fill="#231F20" enable-background="new    " d="M2360.5-3210.6l413.2,593.6c22.6-39.4,22.1-90.1-5.7-129.9
					l-287.7-413.3c-19.1-27.5-47.7-44.7-78.3-50.1C2388.4-3212.7,2374.3-3212.8,2360.5-3210.6L2360.5-3210.6z"/>
				<path fill="#FFFFFF" enable-background="new    " d="M2480.6-2812.7L2480.6-2812.7c-7.4,5.2-9.2,15.3-4.1,22.7l76.3,109.6
					c5.2,7.4,15.3,9.2,22.7,4.1l0,0c7.4-5.2,9.2-15.3,4.1-22.7l-76.3-109.6C2498.2-2816,2488-2817.8,2480.6-2812.7z"/>
				<path opacity="0.6" fill="#FFFFFF" enable-background="new    " d="M2306.1-3063.4L2306.1-3063.4c-7.4,5.2-9.2,15.3-4.1,22.7
					l119.3,171.4c5.2,7.4,15.3,9.2,22.7,4.1l0,0c7.4-5.2,9.2-15.3,4.1-22.7l-119.3-171.4C2323.6-3066.7,2313.5-3068.5,2306.1-3063.4
					z"/>
				<path fill="#FFFFFF" enable-background="new    " d="M2628.1-2600.7c6.1-4.2,7.6-12.6,3.4-18.7c-4.2-6.1-12.6-7.6-18.7-3.4
					c-6.1,4.2-7.6,12.6-3.4,18.7C2613.7-2598,2622-2596.5,2628.1-2600.7z"/>
				<path fill="#FFFFFF" enable-background="new    " d="M2604-2635.4c6.1-4.2,7.6-12.6,3.4-18.7c-4.2-6.1-12.6-7.6-18.7-3.4
					c-6.1,4.2-7.6,12.6-3.4,18.7C2589.6-2632.6,2597.9-2631.1,2604-2635.4z"/>
			</g>
			<g>
				<path fill="#EAECED" d="M2233.7-1740.9l195.2,365.6c13,24.3,34.7,41.1,59.1,48.6s51.8,5.6,76.2-7.4c1.5-0.8,2.9-1.5,4.2-2.3
					c11.6-6.9,21.3-15.9,29-26.2c22.3-30,26.7-71.5,7.9-106.7L2410.1-1835c-13-24.3-34.7-41.1-59.1-48.6c-11-3.3-22.5-4.7-34-4.2
					c-12.8,0.6-25.7,3.7-37.9,9.5c-1.4,0.7-2.9,1.5-4.3,2.2C2226-1850.1,2207.6-1789.5,2233.7-1740.9z"/>
				<path fill="#ED1C24" d="M2233.6-1740.8l97.6,182.8l176.4-94.2L2410-1835c-13-24.3-34.7-41.1-59.1-48.6
					c-24.5-7.4-51.8-5.6-76.2,7.4C2226-1850.1,2207.6-1789.5,2233.6-1740.8z"/>
				<path opacity="0.1" fill="#231F20" enable-background="new    " d="M2317-1887.8l280.4,525.1c22.3-30,26.7-71.5,7.9-106.7
					L2410.1-1835c-13-24.3-34.7-41.1-59.1-48.6C2340-1886.9,2328.5-1888.3,2317-1887.8L2317-1887.8z"/>
				<path fill="#FFFFFF" enable-background="new    " d="M2376.7-1551L2376.7-1551c-6.5,3.5-9,11.6-5.5,18.2l51.7,96.9
					c3.5,6.5,11.6,9,18.2,5.5l0,0c6.5-3.5,9-11.6,5.5-18.2l-51.7-96.9C2391.3-1552.1,2383.2-1554.5,2376.7-1551z"/>
				<path opacity="0.6" fill="#FFFFFF" enable-background="new    " d="M2258.3-1772.8L2258.3-1772.8c-6.5,3.5-9,11.6-5.5,18.2
					l80.9,151.6c3.5,6.5,11.6,9,18.2,5.5l0,0c6.5-3.5,9-11.6,5.5-18.2l-80.9-151.6C2272.9-1773.8,2264.8-1776.3,2258.3-1772.8z"/>
				<path fill="#FFFFFF" enable-background="new    " d="M2476.8-1363.5c5.4-2.9,7.4-9.6,4.5-15c-2.9-5.4-9.6-7.4-15-4.5
					s-7.4,9.6-4.5,15C2464.7-1362.7,2471.4-1360.7,2476.8-1363.5z"/>
				<path fill="#FFFFFF" enable-background="new    " d="M2460.4-1394.2c5.4-2.9,7.4-9.6,4.5-15c-2.9-5.4-9.6-7.4-15-4.5
					c-5.4,2.9-7.4,9.6-4.5,15C2448.3-1393.4,2455-1391.3,2460.4-1394.2z"/>
			</g>
			<g>
				<path fill="#EAECED" d="M597-3104.9l-289.7-296.4c-19.3-19.7-44.8-29.8-70.4-30.1c-25.6-0.3-51.3,9.1-71,28.5
					c-1.2,1.2-2.3,2.3-3.4,3.4c-9.2,9.9-16,21.2-20.5,33.3c-13,35-5.7,76.1,22.3,104.7L454-2965.2c19.3,19.7,44.8,29.8,70.4,30.1
					c11.4,0.1,22.9-1.7,33.9-5.5c12.2-4.2,23.6-10.7,33.7-19.7c1.1-1.1,2.4-2.2,3.5-3.3C634.9-3002.2,635.6-3065.5,597-3104.9z"/>
				<path fill="#ED1C24" d="M597-3105l-144.9-148.2l-143,139.8L454-2965.2c19.3,19.7,44.8,29.8,70.4,30.1c25.6,0.3,51.3-9.1,71-28.5
					C634.9-3002.2,635.6-3065.5,597-3105z"/>
				<path opacity="0.1" fill="#231F20" enable-background="new    " d="M558.1-2940.5l-416.1-425.7c-13,35-5.7,76.1,22.3,104.7
					L454-2965.2c19.3,19.7,44.8,29.8,70.4,30.1C535.8-2935,547.2-2936.8,558.1-2940.5L558.1-2940.5z"/>
				<path fill="#FFFFFF" enable-background="new    " d="M406.6-3247.2L406.6-3247.2c5.3-5.2,5.4-13.7,0.2-19l-76.8-78.6
					c-5.2-5.3-13.7-5.4-19-0.2l0,0c-5.3,5.2-5.4,13.7-0.2,19l76.8,78.6C392.8-3242.1,401.3-3242,406.6-3247.2z"/>
				<path opacity="0.6" fill="#FFFFFF" enable-background="new    " d="M582.3-3067.4L582.3-3067.4c5.3-5.2,5.4-13.7,0.2-19
					l-120.1-122.9c-5.2-5.3-13.7-5.4-19-0.2l0,0c-5.3,5.2-5.4,13.7-0.2,19l120.1,122.9C568.5-3062.3,577-3062.2,582.3-3067.4z"/>
				<path fill="#FFFFFF" enable-background="new    " d="M258-3399.2c-4.4,4.3-4.4,11.3-0.2,15.6c4.3,4.4,11.3,4.4,15.6,0.2
					c4.4-4.3,4.4-11.3,0.2-15.6C269.4-3403.4,262.4-3403.4,258-3399.2z"/>
				<path fill="#FFFFFF" enable-background="new    " d="M282.3-3374.3c-4.4,4.3-4.4,11.3-0.2,15.6c4.3,4.4,11.3,4.4,15.6,0.2
					c4.4-4.3,4.4-11.3,0.2-15.6C293.7-3378.5,286.7-3378.6,282.3-3374.3z"/>
			</g>
			<g>
				<path fill="#EAEDEA" d="M639.7-2356.2l-217.6-222.7c-14.5-14.8-33.7-22.4-52.9-22.6s-38.5,6.9-53.4,21.4
					c-0.9,0.9-1.7,1.7-2.5,2.6c-6.9,7.4-12.1,15.9-15.4,25c-9.8,26.3-4.3,57.2,16.7,78.7l217.6,222.7c14.5,14.8,33.7,22.4,52.9,22.6
					c8.6,0.1,17.2-1.3,25.4-4.1c9.1-3.1,17.8-8.1,25.3-14.8c0.8-0.8,1.8-1.7,2.6-2.5C668.2-2279,668.7-2326.5,639.7-2356.2z"/>
				<path fill="#9D1CED" d="M639.8-2356.2l-108.8-111.4l-107.5,105l108.8,111.4c14.5,14.8,33.7,22.4,52.9,22.6
					c19.2,0.2,38.5-6.9,53.4-21.4C668.2-2279,668.7-2326.5,639.8-2356.2z"/>
				<path opacity="0.1" fill="#231F20" enable-background="new    " d="M610.5-2232.6l-312.6-319.9c-9.8,26.3-4.3,57.2,16.7,78.7
					l217.6,222.7c14.5,14.8,33.7,22.4,52.9,22.6C593.7-2228.5,602.3-2229.9,610.5-2232.6L610.5-2232.6z"/>
				<path fill="#FFFFFF" enable-background="new    " d="M496.7-2463.1L496.7-2463.1c4-3.9,4.1-10.3,0.2-14.3l-57.7-59
					c-3.9-4-10.3-4.1-14.3-0.2l0,0c-4,3.9-4.1,10.3-0.2,14.3l57.7,59C486.3-2459.2,492.7-2459.2,496.7-2463.1z"/>
				<path opacity="0.6" fill="#FFFFFF" enable-background="new    " d="M628.7-2328L628.7-2328c4-3.9,4.1-10.3,0.2-14.3l-90.3-92.3
					c-3.9-4-10.3-4.1-14.3-0.2l0,0c-4,3.9-4.1,10.3-0.2,14.3l90.3,92.3C618.3-2324.1,624.7-2324.1,628.7-2328z"/>
				<path fill="#FFFFFF" enable-background="new    " d="M385-2577.3c-3.3,3.2-3.3,8.5-0.1,11.7c3.2,3.3,8.5,3.3,11.7,0.1
					c3.3-3.2,3.3-8.5,0.1-11.7C393.6-2580.4,388.3-2580.5,385-2577.3z"/>
				<path fill="#FFFFFF" enable-background="new    " d="M403.3-2558.6c-3.3,3.2-3.3,8.5-0.1,11.7c3.2,3.3,8.5,3.3,11.7,0.1
					c3.3-3.2,3.3-8.5,0.1-11.7C411.8-2561.7,406.6-2561.8,403.3-2558.6z"/>
			</g>
			<g>
				<path fill="#EDECEA" d="M848.1-1541.5l268.3-158c17.8-10.5,29.8-27.3,34.6-45.9s2.6-39-8-56.9c-0.6-1.1-1.2-2.1-1.9-3.1
					c-5.6-8.5-12.6-15.5-20.6-20.9c-23.2-15.8-54.5-17.8-80.4-2.6l-268.3,158c-17.8,10.5-29.8,27.3-34.6,45.9
					c-2.1,8.3-2.8,17-2.1,25.7c0.8,9.6,3.6,19.2,8.3,28.2c0.6,1,1.2,2.1,1.8,3.1C766.3-1532.3,812.4-1520.3,848.1-1541.5z"/>
				<path fill="#1CED73" d="M848.1-1541.4l134.2-79L906-1749.9l-134.2,79c-17.8,10.5-29.8,27.3-34.6,45.9s-2.6,39,8,56.9
					C766.3-1532.3,812.4-1520.3,848.1-1541.4z"/>
				<path opacity="0.1" fill="#231F20" enable-background="new    " d="M735.1-1599.4l385.4-227c-23.2-15.8-54.5-17.8-80.4-2.6
					l-268.3,158c-17.8,10.5-29.8,27.3-34.6,45.9C735.1-1616.7,734.4-1608,735.1-1599.4L735.1-1599.4z"/>
				<path fill="#FFFFFF" enable-background="new    " d="M986.1-1654.8L986.1-1654.8c2.8,4.8,9,6.4,13.8,3.6l71.1-41.9
					c4.8-2.8,6.4-9,3.6-13.8l0,0c-2.8-4.8-9-6.4-13.8-3.6l-71.1,41.9C984.9-1665.8,983.3-1659.6,986.1-1654.8z"/>
				<path opacity="0.6" fill="#FFFFFF" enable-background="new    " d="M823.3-1558.9L823.3-1558.9c2.8,4.8,9,6.4,13.8,3.6
					l111.3-65.5c4.8-2.8,6.4-9,3.6-13.8l0,0c-2.8-4.8-9-6.4-13.8-3.6l-111.3,65.5C822.1-1569.9,820.5-1563.7,823.3-1558.9z"/>
				<path fill="#FFFFFF" enable-background="new    " d="M1123.7-1735.8c-2.3-4-7.4-5.3-11.4-2.9c-4,2.3-5.3,7.4-2.9,11.4
					s7.4,5.3,11.4,2.9S1126-1731.9,1123.7-1735.8z"/>
				<path fill="#FFFFFF" enable-background="new    " d="M1101.2-1722.6c-2.3-4-7.4-5.3-11.4-2.9c-4,2.3-5.3,7.4-2.9,11.4
					c2.3,4,7.4,5.3,11.4,2.9C1102.2-1713.5,1103.5-1718.6,1101.2-1722.6z"/>
			</g>
			<g>
				<path fill="#EAEDEC" d="M825.5-3287.6l268.3-158c17.8-10.5,29.8-27.3,34.6-45.9s2.6-39-8-56.9c-0.6-1.1-1.2-2.1-1.9-3.1
					c-5.6-8.5-12.6-15.5-20.6-20.9c-23.2-15.8-54.5-17.8-80.4-2.6l-268.3,158c-17.8,10.5-29.8,27.3-34.6,45.9
					c-2.1,8.3-2.8,17-2.1,25.7c0.8,9.6,3.6,19.2,8.3,28.2c0.6,1,1.2,2.1,1.8,3.1C743.7-3278.5,789.8-3266.5,825.5-3287.6z"/>
				<path fill="#ED1CBC" d="M825.5-3287.6l134.2-79l-76.3-129.5l-134.2,79c-17.8,10.5-29.8,27.3-34.6,45.9s-2.6,39,8,56.9
					C743.7-3278.5,789.8-3266.5,825.5-3287.6z"/>
				<path opacity="0.1" fill="#231F20" enable-background="new    " d="M712.5-3345.5l385.4-227c-23.2-15.8-54.5-17.8-80.4-2.6
					l-268.3,158c-17.8,10.5-29.8,27.3-34.6,45.9C712.5-3362.8,711.8-3354.1,712.5-3345.5L712.5-3345.5z"/>
				<path fill="#FFFFFF" enable-background="new    " d="M963.5-3401L963.5-3401c2.8,4.8,9,6.4,13.8,3.6l71.1-41.9
					c4.8-2.8,6.4-9,3.6-13.8l0,0c-2.8-4.8-9-6.4-13.8-3.6l-71.1,41.9C962.3-3411.9,960.7-3405.8,963.5-3401z"/>
				<path opacity="0.6" fill="#FFFFFF" enable-background="new    " d="M800.7-3305.1L800.7-3305.1c2.8,4.8,9,6.4,13.8,3.6
					l111.3-65.5c4.8-2.8,6.4-9,3.6-13.8l0,0c-2.8-4.8-9-6.4-13.8-3.6l-111.3,65.5C799.5-3316.1,797.9-3309.9,800.7-3305.1z"/>
				<path fill="#FFFFFF" enable-background="new    " d="M1101.1-3482c-2.3-4-7.4-5.3-11.4-2.9c-4,2.3-5.3,7.4-2.9,11.4
					c2.3,4,7.4,5.3,11.4,2.9C1102.1-3473,1103.4-3478.1,1101.1-3482z"/>
				<path fill="#FFFFFF" enable-background="new    " d="M1078.6-3468.8c-2.3-4-7.4-5.3-11.4-2.9s-5.3,7.4-2.9,11.4
					c2.3,4,7.4,5.3,11.4,2.9C1079.6-3459.7,1080.9-3464.8,1078.6-3468.8z"/>
			</g>
			<g>
				<path fill="#EAEDEC" d="M1709.9-2635.5l-166.6,263.1c-11.1,17.5-14,37.9-9.8,56.6c4.2,18.8,15.5,35.9,33.1,47
					c1.1,0.7,2.1,1.3,3.1,1.9c8.8,5,18.3,8.1,27.9,9.2c27.9,3.5,56.6-9,72.7-34.4l166.6-263.1c11.1-17.5,14-37.9,9.8-56.6
					c-1.9-8.4-5.2-16.5-9.9-23.8c-5.1-8.2-11.9-15.4-20.3-21.3c-1-0.6-2-1.4-3-2C1778.5-2681,1732-2670.6,1709.9-2635.5z"/>
				<path fill="#ED1CBC" d="M1709.8-2635.5l-83.3,131.6l126.9,80.4l83.3-131.6c11.1-17.5,14-37.9,9.8-56.6
					c-4.2-18.8-15.5-35.9-33.1-47C1778.5-2681,1732-2670.6,1709.8-2635.5z"/>
				<path opacity="0.1" fill="#231F20" enable-background="new    " d="M1836.8-2635.5l-239.3,377.9c27.9,3.5,56.6-9,72.7-34.4
					l166.6-263.1c11.1-17.5,14-37.9,9.8-56.6C1844.7-2620.2,1841.4-2628.2,1836.8-2635.5L1836.8-2635.5z"/>
				<path fill="#FFFFFF" enable-background="new    " d="M1638.8-2471.7L1638.8-2471.7c-4.7-3-10.9-1.6-13.9,3.1l-44.2,69.7
					c-3,4.7-1.6,10.9,3.1,13.9l0,0c4.7,3,10.9,1.6,13.9-3.1l44.2-69.7C1644.9-2462.5,1643.5-2468.7,1638.8-2471.7z"/>
				<path opacity="0.6" fill="#FFFFFF" enable-background="new    " d="M1739.9-2631.3L1739.9-2631.3c-4.7-3-10.9-1.6-13.9,3.1
					l-69.1,109.1c-3,4.7-1.6,10.9,3.1,13.9l0,0c4.7,3,10.9,1.6,13.9-3.1l69.1-109.1C1746-2622.1,1744.6-2628.3,1739.9-2631.3z"/>
				<path fill="#FFFFFF" enable-background="new    " d="M1553.4-2336.8c3.9,2.5,9,1.3,11.5-2.6c2.5-3.9,1.3-9-2.6-11.5
					c-3.9-2.5-9-1.3-11.5,2.6C1548.3-2344.4,1549.5-2339.2,1553.4-2336.8z"/>
				<path fill="#FFFFFF" enable-background="new    " d="M1567.3-2358.8c3.9,2.5,9,1.3,11.5-2.6c2.5-3.9,1.3-9-2.6-11.5
					c-3.9-2.5-9-1.3-11.5,2.6C1562.3-2366.4,1563.5-2361.3,1567.3-2358.8z"/>
			</g>
			<g>
				<path fill="#EAEDEC" d="M167.2-464.5l268.3-158c17.8-10.5,29.8-27.3,34.6-45.9c4.8-18.6,2.6-39-8-56.9c-0.6-1.1-1.2-2.1-1.9-3.1
					c-5.6-8.5-12.6-15.5-20.6-20.9c-23.2-15.8-54.5-17.8-80.4-2.6L91-593.9c-17.8,10.5-29.8,27.3-34.6,45.9
					c-2.1,8.3-2.8,17-2.1,25.7c0.8,9.6,3.6,19.2,8.3,28.2c0.6,1,1.2,2.1,1.8,3.1C85.4-455.3,131.5-443.4,167.2-464.5z"/>
				<path fill="#ED1CBC" d="M167.3-464.4l134.2-79l-76.3-129.5L91-593.9c-17.8,10.5-29.8,27.3-34.6,45.9s-2.6,39,8,56.9
					C85.4-455.3,131.5-443.4,167.3-464.4z"/>
				<path opacity="0.1" fill="#231F20" enable-background="new    " d="M54.3-522.4l385.4-227c-23.2-15.8-54.5-17.8-80.4-2.6
					L91-593.9c-17.8,10.5-29.8,27.3-34.6,45.9C54.3-539.7,53.5-531,54.3-522.4L54.3-522.4z"/>
				<path fill="#FFFFFF" enable-background="new    " d="M305.2-577.8L305.2-577.8c2.8,4.8,9,6.4,13.8,3.6l71.1-41.9
					c4.8-2.8,6.4-9,3.6-13.8l0,0c-2.8-4.8-9-6.4-13.8-3.6l-71.1,41.9C304-588.8,302.4-582.6,305.2-577.8z"/>
				<path opacity="0.6" fill="#FFFFFF" enable-background="new    " d="M142.5-481.9L142.5-481.9c2.8,4.8,9,6.4,13.8,3.6l111.3-65.5
					c4.8-2.8,6.4-9,3.6-13.8l0,0c-2.8-4.8-9-6.4-13.8-3.6L146-495.7C141.2-492.9,139.6-486.7,142.5-481.9z"/>
				<path fill="#FFFFFF" enable-background="new    " d="M442.8-658.8c-2.3-4-7.4-5.3-11.4-2.9c-4,2.3-5.3,7.4-2.9,11.4
					s7.4,5.3,11.4,2.9C443.8-649.8,445.2-654.9,442.8-658.8z"/>
				<path fill="#FFFFFF" enable-background="new    " d="M420.3-645.6c-2.3-4-7.4-5.3-11.4-2.9c-4,2.3-5.3,7.4-2.9,11.4
					c2.3,4,7.4,5.3,11.4,2.9C421.3-636.5,422.7-641.6,420.3-645.6z"/>
			</g>
			<g>
				<path fill="#EAECED" d="M1577.6-333.2l268.3-158c17.8-10.5,29.8-27.3,34.6-45.9c4.8-18.6,2.6-39-8-56.9
					c-0.6-1.1-1.2-2.1-1.9-3.1c-5.6-8.5-12.6-15.5-20.6-20.9c-23.2-15.8-54.5-17.8-80.4-2.6l-268.3,158
					c-17.8,10.5-29.8,27.3-34.6,45.9c-2.1,8.3-2.8,17-2.1,25.7c0.8,9.6,3.6,19.2,8.3,28.2c0.6,1,1.2,2.1,1.8,3.1
					C1495.8-324,1541.9-312.1,1577.6-333.2z"/>
				<path fill="#ED1C24" d="M1577.6-333.2l134.2-79l-76.3-129.5l-134.2,79c-17.8,10.5-29.8,27.3-34.6,45.9s-2.6,39,8,56.9
					C1495.8-324,1541.9-312.1,1577.6-333.2z"/>
				<path opacity="0.1" fill="#231F20" enable-background="new    " d="M1464.6-391.1l385.4-227c-23.2-15.8-54.5-17.8-80.4-2.6
					l-268.3,158c-17.8,10.5-29.8,27.3-34.6,45.9C1464.6-408.4,1463.9-399.7,1464.6-391.1L1464.6-391.1z"/>
				<path fill="#FFFFFF" enable-background="new    " d="M1715.6-446.5L1715.6-446.5c2.8,4.8,9,6.4,13.8,3.6l71.1-41.9
					c4.8-2.8,6.4-9,3.6-13.8l0,0c-2.8-4.8-9-6.4-13.8-3.6l-71.1,41.9C1714.3-457.5,1712.7-451.3,1715.6-446.5z"/>
				<path opacity="0.6" fill="#FFFFFF" enable-background="new    " d="M1552.8-350.6L1552.8-350.6c2.8,4.8,9,6.4,13.8,3.6
					l111.3-65.5c4.8-2.8,6.4-9,3.6-13.8l0,0c-2.8-4.8-9-6.4-13.8-3.6l-111.3,65.5C1551.6-361.6,1550-355.5,1552.8-350.6z"/>
				<path fill="#FFFFFF" enable-background="new    " d="M1853.2-527.6c-2.3-4-7.4-5.3-11.4-2.9c-4,2.3-5.3,7.4-2.9,11.4
					s7.4,5.3,11.4,2.9S1855.5-523.6,1853.2-527.6z"/>
				<path fill="#FFFFFF" enable-background="new    " d="M1830.7-514.3c-2.3-4-7.4-5.3-11.4-2.9c-4,2.3-5.3,7.4-2.9,11.4
					c2.3,4,7.4,5.3,11.4,2.9C1831.7-505.3,1833-510.4,1830.7-514.3z"/>
			</g>
			<g>
				<path fill="#EAEDEC" d="M1439.4-1238.9l376.8-220.2c25.1-14.6,41.9-38.1,48.7-64.2s3.8-54.7-10.9-79.8c-0.9-1.5-1.7-2.9-2.6-4.3
					c-7.8-11.9-17.6-21.8-28.8-29.4c-32.5-22.3-76.3-25.2-112.7-4l-376.8,220.2c-25.1,14.6-41.9,38.1-48.7,64.2
					c-3,11.7-4.1,23.9-3.1,36c1.1,13.5,4.9,26.9,11.5,39.5c0.8,1.4,1.6,3,2.5,4.4C1324.7-1226.4,1389.2-1209.5,1439.4-1238.9z"/>
				<path fill="#ED1CBC" d="M1439.4-1238.8l188.4-110.1l-106.3-181.8l-188.4,110.1c-25.1,14.6-41.9,38.1-48.7,64.2
					c-6.8,26.1-3.8,54.7,10.9,79.8C1324.7-1226.4,1389.2-1209.5,1439.4-1238.8z"/>
				<path opacity="0.1" fill="#231F20" enable-background="new    " d="M1281.3-1320.6l541.2-316.3c-32.5-22.3-76.3-25.2-112.7-4
					l-376.8,220.2c-25.1,14.6-41.9,38.1-48.7,64.2C1281.4-1344.8,1280.4-1332.6,1281.3-1320.6L1281.3-1320.6z"/>
				<path fill="#FFFFFF" enable-background="new    " d="M1633.4-1397L1633.4-1397c3.9,6.8,12.6,9,19.3,5.1l99.9-58.4
					c6.8-3.9,9-12.6,5.1-19.3l0,0c-3.9-6.8-12.6-9-19.3-5.1l-99.9,58.4C1631.7-1412.4,1629.4-1403.8,1633.4-1397z"/>
				<path opacity="0.6" fill="#FFFFFF" enable-background="new    " d="M1404.8-1263.4L1404.8-1263.4c3.9,6.8,12.6,9,19.3,5.1
					l156.3-91.3c6.8-3.9,9-12.6,5.1-19.3l0,0c-3.9-6.8-12.6-9-19.3-5.1l-156.3,91.3C1403.1-1278.8,1400.8-1270.2,1404.8-1263.4z"/>
				<path fill="#FFFFFF" enable-background="new    " d="M1826.6-1510c-3.2-5.6-10.4-7.4-15.9-4.2c-5.6,3.2-7.4,10.4-4.2,15.9
					c3.2,5.6,10.4,7.4,15.9,4.2C1828-1497.3,1829.9-1504.4,1826.6-1510z"/>
				<path fill="#FFFFFF" enable-background="new    " d="M1795-1491.5c-3.2-5.6-10.4-7.4-15.9-4.2s-7.4,10.4-4.2,15.9
					c3.2,5.6,10.4,7.4,15.9,4.2C1796.4-1478.8,1798.3-1486,1795-1491.5z"/>
			</g>
			<g>
				<path fill="#EAECED" d="M1977.4-3230.3l376.8-220.2c25.1-14.6,41.9-38.1,48.7-64.2c6.8-26.1,3.8-54.7-10.9-79.8
					c-0.9-1.5-1.7-2.9-2.6-4.3c-7.8-11.9-17.6-21.8-28.8-29.4c-32.5-22.3-76.3-25.2-112.7-4l-376.8,220.2
					c-25.1,14.6-41.9,38.1-48.7,64.2c-3,11.7-4.1,23.9-3.1,36c1.1,13.5,4.9,26.9,11.5,39.5c0.8,1.4,1.6,3,2.5,4.4
					C1862.8-3217.8,1927.3-3200.8,1977.4-3230.3z"/>
				<path fill="#ED1C24" d="M1977.5-3230.2l188.4-110.1l-106.3-181.8L1871.2-3412c-25.1,14.6-41.9,38.1-48.7,64.2
					c-6.8,26.1-3.8,54.7,10.9,79.8C1862.8-3217.8,1927.3-3200.8,1977.5-3230.2z"/>
				<path opacity="0.1" fill="#231F20" enable-background="new    " d="M1819.4-3312l541.2-316.3c-32.5-22.3-76.3-25.2-112.7-4
					l-376.8,220.2c-25.1,14.6-41.9,38.1-48.7,64.2C1819.5-3336.2,1818.4-3324,1819.4-3312L1819.4-3312z"/>
				<path fill="#FFFFFF" enable-background="new    " d="M2171.4-3388.4L2171.4-3388.4c3.9,6.8,12.6,9,19.3,5.1l99.9-58.4
					c6.8-3.9,9-12.6,5.1-19.3l0,0c-3.9-6.8-12.6-9-19.3-5.1l-99.9,58.4C2169.7-3403.8,2167.5-3395.2,2171.4-3388.4z"/>
				<path opacity="0.6" fill="#FFFFFF" enable-background="new    " d="M1942.8-3254.8L1942.8-3254.8c3.9,6.8,12.6,9,19.3,5.1
					l156.3-91.3c6.8-3.9,9-12.6,5.1-19.3l0,0c-3.9-6.8-12.6-9-19.3-5.1l-156.3,91.3C1941.1-3270.2,1938.9-3261.6,1942.8-3254.8z"/>
				<path fill="#FFFFFF" enable-background="new    " d="M2364.7-3501.4c-3.2-5.6-10.4-7.4-15.9-4.2c-5.6,3.2-7.4,10.4-4.2,15.9
					c3.2,5.6,10.4,7.4,15.9,4.2C2366-3488.7,2367.9-3495.8,2364.7-3501.4z"/>
				<path fill="#FFFFFF" enable-background="new    " d="M2333.1-3482.9c-3.2-5.6-10.4-7.4-15.9-4.2c-5.6,3.2-7.4,10.4-4.2,15.9
					c3.2,5.6,10.4,7.4,15.9,4.2C2334.4-3470.2,2336.3-3477.3,2333.1-3482.9z"/>
			</g>
		</g>
	</g>
</pattern>
<g>
	<defs>
		<rect id="SVGID_1_" width="3000" height="1687.5"/>
	</defs>
	<clipPath id="SVGID_2_">
		<use xlink:href="#SVGID_1_"  overflow="visible"/>
	</clipPath>
	<g clip-path="url(#SVGID_2_)">
		<rect fill="#36AFE1" width="3000" height="1687.5"/>
		<g>
			<pattern  id="SVGID_3_" xlink:href="#New_Pattern" patternTransform="matrix(0.3 0 0 0.3 -3811.8354 -4776.8081)">
			</pattern>
			<rect fill="url(#SVGID_3_)" width="3000" height="1687.5"/>
		</g>
	</g>
</g>
</svg>
