<?xml version="1.0" encoding="UTF-8" standalone="no"?>
<svg
   xmlns:dc="http://purl.org/dc/elements/1.1/"
   xmlns:cc="http://creativecommons.org/ns#"
   xmlns:rdf="http://www.w3.org/1999/02/22-rdf-syntax-ns#"
   xmlns:svg="http://www.w3.org/2000/svg"
   xmlns="http://www.w3.org/2000/svg"
   xmlns:sodipodi="http://sodipodi.sourceforge.net/DTD/sodipodi-0.dtd"
   xmlns:inkscape="http://www.inkscape.org/namespaces/inkscape"
   width="210mm"
   height="297mm"
   viewBox="0 0 210 297"
   version="1.1"
   id="svg8"
   inkscape:version="1.0.2 (e86c870879, 2021-01-15)"
   sodipodi:docname="LOGO.svg">
  <defs
     id="defs2">
    <rect
       x="34.017857"
       y="161.20685"
       width="62.744048"
       height="46.491071"
       id="rect999" />
    <rect
       x="51.026786"
       y="186.53125"
       width="30.427083"
       height="13.418155"
       id="rect993" />
    <rect
       x="23.519718"
       y="171.0525"
       width="156.0854"
       height="57.730218"
       id="rect983" />
    <rect
       x="48.569941"
       y="112.44792"
       width="111.31399"
       height="15.497024"
       id="rect966" />
  </defs>
  <sodipodi:namedview
     id="base"
     pagecolor="#ffffff"
     bordercolor="#666666"
     borderopacity="1.0"
     inkscape:pageopacity="0.0"
     inkscape:pageshadow="2"
     inkscape:zoom="0.49497475"
     inkscape:cx="104.04704"
     inkscape:cy="472.71863"
     inkscape:document-units="mm"
     inkscape:current-layer="layer1"
     inkscape:document-rotation="0"
     showgrid="false"
     inkscape:lockguides="false"
     inkscape:window-width="1920"
     inkscape:window-height="1017"
     inkscape:window-x="-8"
     inkscape:window-y="-8"
     inkscape:window-maximized="1" />
  <metadata
     id="metadata5">
    <rdf:RDF>
      <cc:Work
         rdf:about="">
        <dc:format>image/svg+xml</dc:format>
        <dc:type
           rdf:resource="http://purl.org/dc/dcmitype/StillImage" />
        <dc:title></dc:title>
      </cc:Work>
    </rdf:RDF>
  </metadata>
  <g
     inkscape:label="Capa 1"
     inkscape:groupmode="layer"
     id="layer1"
     style="display:inline">
    <path
       style="fill:none;stroke:#000000;stroke-width:0.264583px;stroke-linecap:butt;stroke-linejoin:miter;stroke-opacity:1"
       d="m -315.61612,11.74809 c -22.81814,89.70715 37.07824,97.11151 20.50988,-1.07503 75.09698,7.03209 79.94236,-41.88367 -0.64198,-17.2422701 12.152,-45.6783169 1.38272,-66.3746289 -6.70396,-67.4872209 -9.89595,-1.361514 -18.59541,26.133849 -11.29693,67.2401909 -83.65711,-15.9497899 -80.00484,30.2627101 -1.86701,18.5643301 z"
       id="path954"
       sodipodi:nodetypes="cccscc" />
    <path
       style="opacity:0.705706;fill:#00ffff;stroke-width:0.188421"
       d="m 92.819723,169.63633 c -5.320654,-1.81366 -9.392602,-10.16066 -10.850511,-22.24225 -0.418865,-3.47111 -0.572537,-12.06429 -0.294111,-16.44653 0.552008,-8.68823 2.218042,-19.2016 4.460788,-28.14942 0.350996,-1.40036 0.602218,-2.58206 0.55827,-2.62601 -0.04395,-0.0439 -1.421188,0.10049 -3.060541,0.32095 -8.175164,1.09945 -13.063365,1.43489 -20.93451,1.43654 -7.372731,0.002 -10.913888,-0.24704 -16.156927,-1.13421 C 32.86612,98.481274 24.826864,92.744884 27.526583,87.226854 c 1.861915,-3.80562 8.52243,-6.75329 17.974608,-7.95482 11.232753,-1.42787 23.410794,-0.66349 42.539348,2.67005 l 0.583989,0.10177 -0.519348,-3.18537 c -2.980794,-18.28237 -2.970186,-35.33708 0.02989,-48.07005 2.409524,-10.22653 6.724033,-16.39696 11.191163,-16.00515 4.085197,0.35831 7.980377,5.50473 10.234607,13.52229 0.59533,2.11741 1.32695,6.1186 1.64619,9.00295 0.32162,2.90587 0.32049,13.45585 -0.002,16.91444 -0.73573,7.89507 -2.10631,15.74092 -4.30099,24.62094 -0.45772,1.85229 -0.83228,3.40023 -0.83228,3.43985 0,0.0396 0.23388,0.002 0.51972,-0.0836 19.60527,-5.87238 34.91205,-8.01184 45.97135,-6.4255 5.02912,0.72137 8.30418,2.0224 10.42292,4.14054 1.0009,1.00062 1.31856,1.46394 1.55916,2.27411 0.37847,1.27446 0.37847,1.7572 -3e-5,3.03174 -0.41575,1.39997 -1.29923,2.69903 -2.83988,4.17572 -5.44185,5.2159 -16.60203,8.80475 -31.15928,10.02006 -5.29538,0.44209 -18.77279,0.24301 -22.94227,-0.33888 l -0.83066,-0.11593 0.1044,0.82878 c 0.0574,0.455816 0.40766,2.912356 0.77832,5.458976 1.48219,10.18334 1.91362,15.99526 1.90795,25.70238 -0.005,8.46497 -0.20139,11.37453 -1.15485,17.10342 -1.99833,12.00713 -6.29458,20.00334 -11.641657,21.66753 -1.46481,0.4559 -2.41678,0.43498 -3.94734,-0.0867 z"
       id="path962" />
    <text
       xml:space="preserve"
       id="text964"
       style="font-size:2.82222px;line-height:1.25;font-family:sans-serif;white-space:pre;shape-inside:url(#rect966);" />
    <text
       xml:space="preserve"
       id="text981"
       style="line-height:1.25;font-family:sans-serif;font-size:2.82222222px;white-space:pre;shape-inside:url(#rect983);" />
    <g
       aria-label="CUIDAMOS DE TI"
       transform="scale(1.1008871,0.90835834)"
       id="text989"
       style="font-size:13.8212px;line-height:1.25;font-family:sans-serif;fill:#00ffff;stroke-width:1.29573">
      <path
         style="color:#000000;font-style:normal;font-variant:normal;font-weight:normal;font-stretch:normal;font-size:medium;line-height:1.25;font-family:sans-serif;font-variant-ligatures:normal;font-variant-position:normal;font-variant-caps:normal;font-variant-numeric:normal;font-variant-alternates:normal;font-variant-east-asian:normal;font-feature-settings:normal;font-variation-settings:normal;text-indent:0;text-align:start;text-decoration:none;text-decoration-line:none;text-decoration-style:solid;text-decoration-color:#000000;letter-spacing:normal;word-spacing:normal;text-transform:none;writing-mode:lr-tb;direction:ltr;text-orientation:mixed;dominant-baseline:auto;baseline-shift:baseline;text-anchor:start;white-space:normal;shape-padding:0;shape-margin:0;inline-size:0;clip-rule:nonzero;display:inline;overflow:visible;visibility:visible;isolation:auto;mix-blend-mode:normal;color-interpolation:sRGB;color-interpolation-filters:linearRGB;solid-color:#000000;solid-opacity:1;vector-effect:none;fill:#00ffff;fill-opacity:1;fill-rule:nonzero;stroke-width:1.29573;stroke-linecap:butt;stroke-linejoin:miter;stroke-miterlimit:4;stroke-dasharray:none;stroke-dashoffset:0;stroke-opacity:1;color-rendering:auto;image-rendering:auto;shape-rendering:auto;text-rendering:auto;enable-background:accumulate;stop-color:#000000;stop-opacity:1;stroke:none;opacity:1"
         d="m 38.005565,217.35821 c -0.247449,0.10798 -0.472404,0.20921 -0.674863,0.30369 -0.19796,0.0945 -0.458907,0.19346 -0.782841,0.29694 -0.274445,0.0855 -0.573634,0.15747 -0.897569,0.21596 -0.319435,0.063 -0.672614,0.0945 -1.059535,0.0945 -0.728852,0 -1.392468,-0.10123 -1.990847,-0.30369 -0.593879,-0.20696 -1.111274,-0.52864 -1.552185,-0.96505 -0.431913,-0.42741 -0.769344,-0.96955 -1.012295,-1.62642 -0.242951,-0.66137 -0.364426,-1.42846 -0.364426,-2.30129 0,-0.82783 0.116976,-1.56793 0.350929,-2.2203 0.233952,-0.65237 0.571383,-1.2035 1.012294,-1.65341 0.427414,-0.43641 0.94256,-0.76935 1.545437,-0.9988 0.607377,-0.22945 1.279991,-0.34418 2.017842,-0.34418 0.539891,0 1.077532,0.0652 1.612923,0.19571 0.539891,0.13047 1.138269,0.35993 1.795136,0.68836 v 1.58593 h -0.101229 c -0.553388,-0.46341 -1.102277,-0.80084 -1.646667,-1.0123 -0.544389,-0.21145 -1.127021,-0.31718 -1.747896,-0.31718 -0.508397,0 -0.967304,0.0832 -1.376721,0.2497 -0.404918,0.16197 -0.767095,0.41616 -1.08653,0.76259 -0.310437,0.33743 -0.553387,0.76485 -0.728852,1.28224 -0.170965,0.5129 -0.256448,1.10678 -0.256448,1.78164 0,0.70636 0.09448,1.31374 0.283443,1.82213 0.193461,0.5084 0.44091,0.92232 0.742349,1.24175 0.314937,0.33293 0.681612,0.58038 1.100027,0.74235 0.422915,0.15747 0.868325,0.2362 1.33623,0.2362 0.643369,0 1.246247,-0.11023 1.808633,-0.33068 0.562386,-0.22045 1.088779,-0.55114 1.57918,-0.99205 h 0.09448 z"
         id="path1042" />
      <path
         style="color:#000000;font-style:normal;font-variant:normal;font-weight:normal;font-stretch:normal;font-size:medium;line-height:1.25;font-family:sans-serif;font-variant-ligatures:normal;font-variant-position:normal;font-variant-caps:normal;font-variant-numeric:normal;font-variant-alternates:normal;font-variant-east-asian:normal;font-feature-settings:normal;font-variation-settings:normal;text-indent:0;text-align:start;text-decoration:none;text-decoration-line:none;text-decoration-style:solid;text-decoration-color:#000000;letter-spacing:normal;word-spacing:normal;text-transform:none;writing-mode:lr-tb;direction:ltr;text-orientation:mixed;dominant-baseline:auto;baseline-shift:baseline;text-anchor:start;white-space:normal;shape-padding:0;shape-margin:0;inline-size:0;clip-rule:nonzero;display:inline;overflow:visible;visibility:visible;isolation:auto;mix-blend-mode:normal;color-interpolation:sRGB;color-interpolation-filters:linearRGB;solid-color:#000000;solid-opacity:1;vector-effect:none;fill:#00ffff;fill-opacity:1;fill-rule:nonzero;stroke-width:1.29573;stroke-linecap:butt;stroke-linejoin:miter;stroke-miterlimit:4;stroke-dasharray:none;stroke-dashoffset:0;stroke-opacity:1;color-rendering:auto;image-rendering:auto;shape-rendering:auto;text-rendering:auto;enable-background:accumulate;stop-color:#000000;stop-opacity:1;stroke:none;opacity:1"
         d="m 47.4604,214.05138 c 0,0.72885 -0.08098,1.36548 -0.242951,1.90987 -0.157468,0.53989 -0.418415,0.98979 -0.782841,1.34972 -0.34643,0.34193 -0.751348,0.59163 -1.214754,0.7491 -0.463406,0.15747 -1.003297,0.2362 -1.619672,0.2362 -0.629873,0 -1.178761,-0.0832 -1.646666,-0.2497 -0.467905,-0.16646 -0.861576,-0.41166 -1.181011,-0.7356 -0.364426,-0.36892 -0.627623,-0.81433 -0.78959,-1.33623 -0.157468,-0.52189 -0.236202,-1.16301 -0.236202,-1.92336 v -6.01303 h 1.336229 v 6.08052 c 0,0.54439 0.03599,0.97406 0.107978,1.28899 0.07648,0.31493 0.202459,0.60063 0.377924,0.85708 0.197959,0.29244 0.465655,0.51289 0.803087,0.66136 0.341931,0.14847 0.751348,0.22271 1.228251,0.22271 0.481403,0 0.89082,-0.072 1.228251,-0.21596 0.337432,-0.14847 0.607377,-0.37117 0.809836,-0.66811 0.175465,-0.25645 0.29919,-0.5489 0.371175,-0.87733 0.07648,-0.33293 0.114727,-0.7446 0.114727,-1.235 v -6.11426 H 47.4604 Z"
         id="path1044" />
      <path
         style="color:#000000;font-style:normal;font-variant:normal;font-weight:normal;font-stretch:normal;font-size:medium;line-height:1.25;font-family:sans-serif;font-variant-ligatures:normal;font-variant-position:normal;font-variant-caps:normal;font-variant-numeric:normal;font-variant-alternates:normal;font-variant-east-asian:normal;font-feature-settings:normal;font-variation-settings:normal;text-indent:0;text-align:start;text-decoration:none;text-decoration-line:none;text-decoration-style:solid;text-decoration-color:#000000;letter-spacing:normal;word-spacing:normal;text-transform:none;writing-mode:lr-tb;direction:ltr;text-orientation:mixed;dominant-baseline:auto;baseline-shift:baseline;text-anchor:start;white-space:normal;shape-padding:0;shape-margin:0;inline-size:0;clip-rule:nonzero;display:inline;overflow:visible;visibility:visible;isolation:auto;mix-blend-mode:normal;color-interpolation:sRGB;color-interpolation-filters:linearRGB;solid-color:#000000;solid-opacity:1;vector-effect:none;fill:#00ffff;fill-opacity:1;fill-rule:nonzero;stroke-width:1.29573;stroke-linecap:butt;stroke-linejoin:miter;stroke-miterlimit:4;stroke-dasharray:none;stroke-dashoffset:0;stroke-opacity:1;color-rendering:auto;image-rendering:auto;shape-rendering:auto;text-rendering:auto;enable-background:accumulate;stop-color:#000000;stop-opacity:1;stroke:none;opacity:1"
         d="M 53.554416,218.08707 H 49.58622 v -1.0258 h 1.315983 v -7.99713 H 49.58622 v -1.02579 h 3.968196 v 1.02579 h -1.315983 v 7.99713 h 1.315983 z"
         id="path1046" />
      <path
         style="color:#000000;font-style:normal;font-variant:normal;font-weight:normal;font-stretch:normal;font-size:medium;line-height:1.25;font-family:sans-serif;font-variant-ligatures:normal;font-variant-position:normal;font-variant-caps:normal;font-variant-numeric:normal;font-variant-alternates:normal;font-variant-east-asian:normal;font-feature-settings:normal;font-variation-settings:normal;text-indent:0;text-align:start;text-decoration:none;text-decoration-line:none;text-decoration-style:solid;text-decoration-color:#000000;letter-spacing:normal;word-spacing:normal;text-transform:none;writing-mode:lr-tb;direction:ltr;text-orientation:mixed;dominant-baseline:auto;baseline-shift:baseline;text-anchor:start;white-space:normal;shape-padding:0;shape-margin:0;inline-size:0;clip-rule:nonzero;display:inline;overflow:visible;visibility:visible;isolation:auto;mix-blend-mode:normal;color-interpolation:sRGB;color-interpolation-filters:linearRGB;solid-color:#000000;solid-opacity:1;vector-effect:none;fill:#00ffff;fill-opacity:1;fill-rule:nonzero;stroke-width:1.29573;stroke-linecap:butt;stroke-linejoin:miter;stroke-miterlimit:4;stroke-dasharray:none;stroke-dashoffset:0;stroke-opacity:1;color-rendering:auto;image-rendering:auto;shape-rendering:auto;text-rendering:auto;enable-background:accumulate;stop-color:#000000;stop-opacity:1;stroke:none;opacity:1"
         d="m 64.318486,213.07283 c 0,0.91331 -0.200209,1.74115 -0.600628,2.4835 -0.39592,0.74235 -0.924563,1.31823 -1.585929,1.72765 -0.458907,0.28344 -0.971803,0.48815 -1.538688,0.61412 -0.562387,0.12598 -1.304736,0.18897 -2.227049,0.18897 h -2.537486 v -10.04872 h 2.510491 c 0.980801,0 1.759144,0.072 2.335027,0.21596 0.580383,0.13947 1.070783,0.33293 1.471202,0.58038 0.683861,0.42741 1.217003,0.99655 1.599426,1.7074 0.382423,0.71086 0.573634,1.55444 0.573634,2.53074 z m -1.396967,-0.0202 c 0,-0.78734 -0.137222,-1.45096 -0.411667,-1.99085 -0.274444,-0.53989 -0.683861,-0.96506 -1.228251,-1.27549 -0.39592,-0.22495 -0.816585,-0.38017 -1.261994,-0.46566 -0.44541,-0.09 -0.978552,-0.13497 -1.599426,-0.13497 h -1.255246 v 7.75418 h 1.255246 c 0.643369,0 1.203506,-0.0472 1.680409,-0.14172 0.481403,-0.0945 0.922313,-0.26995 1.322732,-0.5264 0.499399,-0.31943 0.872824,-0.7401 1.120274,-1.26199 0.251949,-0.52189 0.377923,-1.17426 0.377923,-1.9571 z"
         id="path1048" />
      <path
         style="color:#000000;font-style:normal;font-variant:normal;font-weight:normal;font-stretch:normal;font-size:medium;line-height:1.25;font-family:sans-serif;font-variant-ligatures:normal;font-variant-position:normal;font-variant-caps:normal;font-variant-numeric:normal;font-variant-alternates:normal;font-variant-east-asian:normal;font-feature-settings:normal;font-variation-settings:normal;text-indent:0;text-align:start;text-decoration:none;text-decoration-line:none;text-decoration-style:solid;text-decoration-color:#000000;letter-spacing:normal;word-spacing:normal;text-transform:none;writing-mode:lr-tb;direction:ltr;text-orientation:mixed;dominant-baseline:auto;baseline-shift:baseline;text-anchor:start;white-space:normal;shape-padding:0;shape-margin:0;inline-size:0;clip-rule:nonzero;display:inline;overflow:visible;visibility:visible;isolation:auto;mix-blend-mode:normal;color-interpolation:sRGB;color-interpolation-filters:linearRGB;solid-color:#000000;solid-opacity:1;vector-effect:none;fill:#00ffff;fill-opacity:1;fill-rule:nonzero;stroke-width:1.29573;stroke-linecap:butt;stroke-linejoin:miter;stroke-miterlimit:4;stroke-dasharray:none;stroke-dashoffset:0;stroke-opacity:1;color-rendering:auto;image-rendering:auto;shape-rendering:auto;text-rendering:auto;enable-background:accumulate;stop-color:#000000;stop-opacity:1;stroke:none;opacity:1"
         d="m 74.400942,218.08707 h -1.423961 l -0.985301,-2.80069 h -4.346119 l -0.985301,2.80069 h -1.356475 l 3.657759,-10.04872 h 1.781639 z m -2.820928,-3.94795 -1.761393,-4.93325 -1.768142,4.93325 z"
         id="path1050" />
      <path
         style="color:#000000;font-style:normal;font-variant:normal;font-weight:normal;font-stretch:normal;font-size:medium;line-height:1.25;font-family:sans-serif;font-variant-ligatures:normal;font-variant-position:normal;font-variant-caps:normal;font-variant-numeric:normal;font-variant-alternates:normal;font-variant-east-asian:normal;font-feature-settings:normal;font-variation-settings:normal;text-indent:0;text-align:start;text-decoration:none;text-decoration-line:none;text-decoration-style:solid;text-decoration-color:#000000;letter-spacing:normal;word-spacing:normal;text-transform:none;writing-mode:lr-tb;direction:ltr;text-orientation:mixed;dominant-baseline:auto;baseline-shift:baseline;text-anchor:start;white-space:normal;shape-padding:0;shape-margin:0;inline-size:0;clip-rule:nonzero;display:inline;overflow:visible;visibility:visible;isolation:auto;mix-blend-mode:normal;color-interpolation:sRGB;color-interpolation-filters:linearRGB;solid-color:#000000;solid-opacity:1;vector-effect:none;fill:#00ffff;fill-opacity:1;fill-rule:nonzero;stroke-width:1.29573;stroke-linecap:butt;stroke-linejoin:miter;stroke-miterlimit:4;stroke-dasharray:none;stroke-dashoffset:0;stroke-opacity:1;color-rendering:auto;image-rendering:auto;shape-rendering:auto;text-rendering:auto;enable-background:accumulate;stop-color:#000000;stop-opacity:1;stroke:none;opacity:1"
         d="m 84.87482,218.08707 h -1.336229 v -8.6585 l -2.793934,5.89156 h -0.796339 l -2.773688,-5.89156 v 8.6585 h -1.248497 v -10.04872 h 1.822131 l 2.679207,5.59462 2.591475,-5.59462 h 1.855874 z"
         id="path1052" />
      <path
         style="color:#000000;font-style:normal;font-variant:normal;font-weight:normal;font-stretch:normal;font-size:medium;line-height:1.25;font-family:sans-serif;font-variant-ligatures:normal;font-variant-position:normal;font-variant-caps:normal;font-variant-numeric:normal;font-variant-alternates:normal;font-variant-east-asian:normal;font-feature-settings:normal;font-variation-settings:normal;text-indent:0;text-align:start;text-decoration:none;text-decoration-line:none;text-decoration-style:solid;text-decoration-color:#000000;letter-spacing:normal;word-spacing:normal;text-transform:none;writing-mode:lr-tb;direction:ltr;text-orientation:mixed;dominant-baseline:auto;baseline-shift:baseline;text-anchor:start;white-space:normal;shape-padding:0;shape-margin:0;inline-size:0;clip-rule:nonzero;display:inline;overflow:visible;visibility:visible;isolation:auto;mix-blend-mode:normal;color-interpolation:sRGB;color-interpolation-filters:linearRGB;solid-color:#000000;solid-opacity:1;vector-effect:none;fill:#00ffff;fill-opacity:1;fill-rule:nonzero;stroke-width:1.29573;stroke-linecap:butt;stroke-linejoin:miter;stroke-miterlimit:4;stroke-dasharray:none;stroke-dashoffset:0;stroke-opacity:1;color-rendering:auto;image-rendering:auto;shape-rendering:auto;text-rendering:auto;enable-background:accumulate;stop-color:#000000;stop-opacity:1;stroke:none;opacity:1"
         d="m 95.065256,209.19237 c 0.409417,0.44991 0.722103,1.00104 0.93806,1.65341 0.220455,0.65237 0.330683,1.39247 0.330683,2.2203 0,0.82783 -0.112477,1.57018 -0.337432,2.22705 -0.220455,0.65237 -0.530892,1.19676 -0.931311,1.63317 -0.413917,0.45441 -0.904317,0.79634 -1.471202,1.02579 -0.562386,0.22945 -1.205756,0.34418 -1.930109,0.34418 -0.706357,0 -1.349727,-0.11697 -1.930109,-0.35092 -0.575883,-0.23395 -1.066284,-0.57364 -1.471202,-1.01905 -0.404918,-0.44541 -0.717605,-0.99205 -0.93806,-1.63992 -0.215957,-0.64787 -0.323935,-1.38797 -0.323935,-2.2203 0,-0.81883 0.107978,-1.55218 0.323935,-2.20005 0.215956,-0.65237 0.530892,-1.21025 0.944808,-1.67366 0.39592,-0.44091 0.886321,-0.77835 1.471202,-1.0123 0.589381,-0.23395 1.230501,-0.35093 1.923361,-0.35093 0.719854,0 1.365473,0.11923 1.936857,0.35768 0.575883,0.23395 1.064035,0.56914 1.464454,1.00555 z m -0.121476,3.87371 c 0,-1.30473 -0.292441,-2.31028 -0.877322,-3.01664 -0.584881,-0.71085 -1.38347,-1.06628 -2.395765,-1.06628 -1.021293,0 -1.82438,0.35543 -2.409262,1.06628 -0.580382,0.70636 -0.870573,1.71191 -0.870573,3.01664 0,1.31823 0.29694,2.32828 0.890819,3.03014 0.59388,0.69736 1.390219,1.04604 2.389016,1.04604 0.998798,0 1.792887,-0.34868 2.382268,-1.04604 0.593879,-0.70186 0.890819,-1.71191 0.890819,-3.03014 z"
         id="path1054" />
      <path
         style="color:#000000;font-style:normal;font-variant:normal;font-weight:normal;font-stretch:normal;font-size:medium;line-height:1.25;font-family:sans-serif;font-variant-ligatures:normal;font-variant-position:normal;font-variant-caps:normal;font-variant-numeric:normal;font-variant-alternates:normal;font-variant-east-asian:normal;font-feature-settings:normal;font-variation-settings:normal;text-indent:0;text-align:start;text-decoration:none;text-decoration-line:none;text-decoration-style:solid;text-decoration-color:#000000;letter-spacing:normal;word-spacing:normal;text-transform:none;writing-mode:lr-tb;direction:ltr;text-orientation:mixed;dominant-baseline:auto;baseline-shift:baseline;text-anchor:start;white-space:normal;shape-padding:0;shape-margin:0;inline-size:0;clip-rule:nonzero;display:inline;overflow:visible;visibility:visible;isolation:auto;mix-blend-mode:normal;color-interpolation:sRGB;color-interpolation-filters:linearRGB;solid-color:#000000;solid-opacity:1;vector-effect:none;fill:#00ffff;fill-opacity:1;fill-rule:nonzero;stroke-width:1.29573;stroke-linecap:butt;stroke-linejoin:miter;stroke-miterlimit:4;stroke-dasharray:none;stroke-dashoffset:0;stroke-opacity:1;color-rendering:auto;image-rendering:auto;shape-rendering:auto;text-rendering:auto;enable-background:accumulate;stop-color:#000000;stop-opacity:1;stroke:none;opacity:1"
         d="m 105.75509,215.2189 c 0,0.39142 -0.0922,0.77834 -0.27669,1.16076 -0.17997,0.38243 -0.43417,0.70636 -0.7626,0.97181 -0.35993,0.28794 -0.78059,0.51289 -1.26199,0.67486 -0.47691,0.16197 -1.05279,0.24295 -1.72765,0.24295 -0.72435,0 -1.37672,-0.0675 -1.957104,-0.20246 -0.575883,-0.13497 -1.163014,-0.33518 -1.761393,-0.60063 v -1.67366 h 0.09448 c 0.508397,0.42291 1.095528,0.7491 1.761393,0.97855 0.665864,0.22945 1.291234,0.34418 1.876124,0.34418 0.82783,0 1.4712,-0.15522 1.93011,-0.46565 0.4634,-0.31044 0.6951,-0.72436 0.6951,-1.24175 0,-0.44541 -0.11023,-0.77385 -0.33068,-0.9853 -0.21595,-0.21146 -0.54664,-0.37568 -0.99205,-0.49265 -0.33743,-0.09 -0.7041,-0.16422 -1.10002,-0.22271 -0.39143,-0.0585 -0.80759,-0.1327 -1.2485,-0.2227 -0.890822,-0.18896 -1.552188,-0.51065 -1.9841,-0.96506 -0.427414,-0.45891 -0.641121,-1.05503 -0.641121,-1.78838 0,-0.84133 0.355428,-1.5297 1.066284,-2.06509 0.710857,-0.53989 1.612927,-0.80983 2.706207,-0.80983 0.70635,0 1.35422,0.0675 1.9436,0.20246 0.58938,0.13497 1.11128,0.30144 1.56569,0.4994 v 1.57918 h -0.0945 c -0.38242,-0.32393 -0.88632,-0.59163 -1.51169,-0.80309 -0.62087,-0.21595 -1.25749,-0.32393 -1.90986,-0.32393 -0.71536,0 -1.29124,0.14847 -1.72765,0.44541 -0.431915,0.29693 -0.647872,0.67935 -0.647872,1.14726 0,0.41842 0.107978,0.74685 0.323934,0.9853 0.215958,0.23845 0.596128,0.42067 1.140518,0.54664 0.28794,0.063 0.69736,0.13949 1.22825,0.22946 0.53089,0.09 0.9808,0.18221 1.34973,0.27669 0.74685,0.19796 1.30923,0.49715 1.68716,0.89757 0.37792,0.40042 0.56688,0.96056 0.56688,1.68041 z"
         id="path1056" />
      <path
         style="color:#000000;font-style:normal;font-variant:normal;font-weight:normal;font-stretch:normal;font-size:medium;line-height:1.25;font-family:sans-serif;font-variant-ligatures:normal;font-variant-position:normal;font-variant-caps:normal;font-variant-numeric:normal;font-variant-alternates:normal;font-variant-east-asian:normal;font-feature-settings:normal;font-variation-settings:normal;text-indent:0;text-align:start;text-decoration:none;text-decoration-line:none;text-decoration-style:solid;text-decoration-color:#000000;letter-spacing:normal;word-spacing:normal;text-transform:none;writing-mode:lr-tb;direction:ltr;text-orientation:mixed;dominant-baseline:auto;baseline-shift:baseline;text-anchor:start;white-space:normal;shape-padding:0;shape-margin:0;inline-size:0;clip-rule:nonzero;display:inline;overflow:visible;visibility:visible;isolation:auto;mix-blend-mode:normal;color-interpolation:sRGB;color-interpolation-filters:linearRGB;solid-color:#000000;solid-opacity:1;vector-effect:none;fill:#00ffff;fill-opacity:1;fill-rule:nonzero;stroke-width:1.29573;stroke-linecap:butt;stroke-linejoin:miter;stroke-miterlimit:4;stroke-dasharray:none;stroke-dashoffset:0;stroke-opacity:1;color-rendering:auto;image-rendering:auto;shape-rendering:auto;text-rendering:auto;enable-background:accumulate;stop-color:#000000;stop-opacity:1;stroke:none;opacity:1"
         d="m 121.24995,213.07283 c 0,0.91331 -0.20021,1.74115 -0.60063,2.4835 -0.39592,0.74235 -0.92456,1.31823 -1.58593,1.72765 -0.45891,0.28344 -0.9718,0.48815 -1.53868,0.61412 -0.56239,0.12598 -1.30474,0.18897 -2.22705,0.18897 h -2.53749 v -10.04872 h 2.51049 c 0.9808,0 1.75914,0.072 2.33503,0.21596 0.58038,0.13947 1.07078,0.33293 1.4712,0.58038 0.68386,0.42741 1.217,0.99655 1.59943,1.7074 0.38242,0.71086 0.57363,1.55444 0.57363,2.53074 z m -1.39697,-0.0202 c 0,-0.78734 -0.13722,-1.45096 -0.41166,-1.99085 -0.27445,-0.53989 -0.68386,-0.96506 -1.22825,-1.27549 -0.39592,-0.22495 -0.81659,-0.38017 -1.262,-0.46566 -0.44541,-0.09 -0.97855,-0.13497 -1.59942,-0.13497 h -1.25525 v 7.75418 h 1.25525 c 0.64337,0 1.2035,-0.0472 1.68041,-0.14172 0.4814,-0.0945 0.92231,-0.26995 1.32273,-0.5264 0.4994,-0.31943 0.87282,-0.7401 1.12027,-1.26199 0.25195,-0.52189 0.37792,-1.17426 0.37792,-1.9571 z"
         id="path1058" />
      <path
         style="color:#000000;font-style:normal;font-variant:normal;font-weight:normal;font-stretch:normal;font-size:medium;line-height:1.25;font-family:sans-serif;font-variant-ligatures:normal;font-variant-position:normal;font-variant-caps:normal;font-variant-numeric:normal;font-variant-alternates:normal;font-variant-east-asian:normal;font-feature-settings:normal;font-variation-settings:normal;text-indent:0;text-align:start;text-decoration:none;text-decoration-line:none;text-decoration-style:solid;text-decoration-color:#000000;letter-spacing:normal;word-spacing:normal;text-transform:none;writing-mode:lr-tb;direction:ltr;text-orientation:mixed;dominant-baseline:auto;baseline-shift:baseline;text-anchor:start;white-space:normal;shape-padding:0;shape-margin:0;inline-size:0;clip-rule:nonzero;display:inline;overflow:visible;visibility:visible;isolation:auto;mix-blend-mode:normal;color-interpolation:sRGB;color-interpolation-filters:linearRGB;solid-color:#000000;solid-opacity:1;vector-effect:none;fill:#00ffff;fill-opacity:1;fill-rule:nonzero;stroke-width:1.29573;stroke-linecap:butt;stroke-linejoin:miter;stroke-miterlimit:4;stroke-dasharray:none;stroke-dashoffset:0;stroke-opacity:1;color-rendering:auto;image-rendering:auto;shape-rendering:auto;text-rendering:auto;enable-background:accumulate;stop-color:#000000;stop-opacity:1;stroke:none;opacity:1"
         d="m 130.02993,218.08707 h -6.62041 v -10.04872 h 6.62041 v 1.18776 h -5.28418 v 2.75344 h 5.28418 v 1.18776 h -5.28418 v 3.732 h 5.28418 z"
         id="path1060" />
      <path
         style="color:#000000;font-style:normal;font-variant:normal;font-weight:normal;font-stretch:normal;font-size:medium;line-height:1.25;font-family:sans-serif;font-variant-ligatures:normal;font-variant-position:normal;font-variant-caps:normal;font-variant-numeric:normal;font-variant-alternates:normal;font-variant-east-asian:normal;font-feature-settings:normal;font-variation-settings:normal;text-indent:0;text-align:start;text-decoration:none;text-decoration-line:none;text-decoration-style:solid;text-decoration-color:#000000;letter-spacing:normal;word-spacing:normal;text-transform:none;writing-mode:lr-tb;direction:ltr;text-orientation:mixed;dominant-baseline:auto;baseline-shift:baseline;text-anchor:start;white-space:normal;shape-padding:0;shape-margin:0;inline-size:0;clip-rule:nonzero;display:inline;overflow:visible;visibility:visible;opacity:1;isolation:auto;mix-blend-mode:normal;color-interpolation:sRGB;color-interpolation-filters:linearRGB;solid-color:#000000;solid-opacity:1;vector-effect:none;fill:#ffffff;fill-opacity:1;fill-rule:nonzero;stroke:none;stroke-width:1.29573;stroke-linecap:butt;stroke-linejoin:miter;stroke-miterlimit:4;stroke-dasharray:none;stroke-dashoffset:0;stroke-opacity:1;color-rendering:auto;image-rendering:auto;shape-rendering:auto;text-rendering:auto;enable-background:accumulate;stop-color:#000000;stop-opacity:1"
         d="m 160.07692,155.08713 h -3.59027 v 8.86096 h -1.33623 v -8.86096 h -3.59027 v -1.18776 h 8.51677 z"
         id="path1062" />
      <path
         style="color:#000000;font-style:normal;font-variant:normal;font-weight:normal;font-stretch:normal;font-size:medium;line-height:1.25;font-family:sans-serif;font-variant-ligatures:normal;font-variant-position:normal;font-variant-caps:normal;font-variant-numeric:normal;font-variant-alternates:normal;font-variant-east-asian:normal;font-feature-settings:normal;font-variation-settings:normal;text-indent:0;text-align:start;text-decoration:none;text-decoration-line:none;text-decoration-style:solid;text-decoration-color:#000000;letter-spacing:normal;word-spacing:normal;text-transform:none;writing-mode:lr-tb;direction:ltr;text-orientation:mixed;dominant-baseline:auto;baseline-shift:baseline;text-anchor:start;white-space:normal;shape-padding:0;shape-margin:0;inline-size:0;clip-rule:nonzero;display:inline;overflow:visible;visibility:visible;isolation:auto;mix-blend-mode:normal;color-interpolation:sRGB;color-interpolation-filters:linearRGB;solid-color:#000000;solid-opacity:1;vector-effect:none;fill:#00ffff;fill-opacity:1;fill-rule:nonzero;stroke-width:1.29573;stroke-linecap:butt;stroke-linejoin:miter;stroke-miterlimit:4;stroke-dasharray:none;stroke-dashoffset:0;stroke-opacity:1;color-rendering:auto;image-rendering:auto;shape-rendering:auto;text-rendering:auto;enable-background:accumulate;stop-color:#000000;stop-opacity:1;stroke:none;opacity:1"
         d="m 149.06782,218.08707 h -3.9682 v -1.0258 h 1.31599 v -7.99713 h -1.31599 v -1.02579 h 3.9682 v 1.02579 h -1.31598 v 7.99713 h 1.31598 z"
         id="path1064" />
    </g>
    <text
       xml:space="preserve"
       id="text991"
       style="line-height:1.25;font-family:sans-serif;font-size:2.82222222px;white-space:pre;shape-inside:url(#rect993);" />
    <text
       xml:space="preserve"
       id="text997"
       style="line-height:1.25;font-family:sans-serif;font-size:2.82222222px;white-space:pre;shape-inside:url(#rect999);" />
    <path
       style="display:inline;opacity:0.705706;fill:#00ffff;stroke-width:0.0159953"
       d="m 152.29442,200.27948 c -0.41376,-0.16807 -0.73042,-0.94159 -0.84379,-2.06118 -0.0326,-0.32168 -0.0445,-1.118 -0.0229,-1.5241 0.0429,-0.80514 0.17249,-1.77941 0.3469,-2.60861 0.0273,-0.12976 0.0468,-0.23927 0.0434,-0.24335 -0.003,-0.004 -0.11052,0.009 -0.23801,0.0297 -0.63575,0.10189 -1.01588,0.13298 -1.62798,0.13313 -0.57335,1.8e-4 -0.84873,-0.0229 -1.25646,-0.10511 -1.06353,-0.21445 -1.68871,-0.74604 -1.47876,-1.2574 0.14479,-0.35266 0.66275,-0.62582 1.39781,-0.73716 0.87352,-0.13232 1.82055,-0.0615 3.3081,0.24743 l 0.0454,0.009 -0.0404,-0.29519 c -0.23181,-1.69422 -0.23098,-3.27468 0.002,-4.45464 0.18738,-0.94769 0.5229,-1.5195 0.87029,-1.4832 0.31769,0.0332 0.6206,0.51013 0.7959,1.25312 0.0463,0.19622 0.10319,0.56701 0.12802,0.8343 0.025,0.26928 0.0249,1.24695 -1.6e-4,1.56746 -0.0572,0.73163 -0.1638,1.45871 -0.33447,2.28162 -0.0356,0.17165 -0.0647,0.31509 -0.0647,0.31877 0,0.004 0.0182,1.8e-4 0.0404,-0.008 1.52461,-0.54419 2.71496,-0.74245 3.57499,-0.59545 0.39109,0.0668 0.64578,0.18742 0.81054,0.38371 0.0778,0.0927 0.10254,0.13565 0.12125,0.21073 0.0294,0.11811 0.0294,0.16285 0,0.28096 -0.0323,0.12973 -0.10104,0.25012 -0.22084,0.38696 -0.4232,0.48335 -1.29107,0.81594 -2.42313,0.92856 -0.4118,0.041 -1.45988,0.0225 -1.78412,-0.0314 l -0.0646,-0.0108 0.008,0.0768 c 0.004,0.0422 0.0317,0.26988 0.0605,0.50588 0.11526,0.94369 0.14881,1.48228 0.14837,2.38183 -4.3e-4,0.78446 -0.0157,1.05408 -0.0898,1.58498 -0.1554,1.1127 -0.4895,1.8537 -0.90532,2.00792 -0.11391,0.0422 -0.18794,0.0403 -0.30697,-0.008 z"
       id="path962-1" />
  </g>
  <g
     inkscape:groupmode="layer"
     id="layer2"
     inkscape:label="Capa 2"
     style="display:inline" />
</svg>
